<svg width="64" height="64" viewBox="0 0 64 64" fill="none" xmlns="http://www.w3.org/2000/svg">
  <!-- Background gradient -->
  <defs>
    <linearGradient id="emergencyGradient" x1="0%" y1="0%" x2="100%" y2="100%">
      <stop offset="0%" style="stop-color:#EF4444;stop-opacity:1" />
      <stop offset="100%" style="stop-color:#DC2626;stop-opacity:1" />
    </linearGradient>
    <linearGradient id="timelineGradient" x1="0%" y1="0%" x2="100%" y2="100%">
      <stop offset="0%" style="stop-color:#10B981;stop-opacity:1" />
      <stop offset="100%" style="stop-color:#059669;stop-opacity:1" />
    </linearGradient>
  </defs>
  
  <!-- Emergency triangle -->
  <path d="M32 8L48 48H16L32 8Z" fill="url(#emergencyGradient)" stroke="#DC2626" stroke-width="2"/>
  <path d="M32 16L44 44H20L32 16Z" fill="none" stroke="white" stroke-width="1" stroke-dasharray="2,2"/>
  
  <!-- Exclamation mark -->
  <rect x="30" y="24" width="4" height="12" rx="2" fill="white"/>
  <circle cx="32" cy="40" r="2" fill="white"/>
  
  <!-- Response timeline -->
  <rect x="8" y="52" width="48" height="8" rx="4" fill="url(#timelineGradient)" stroke="#059669" stroke-width="1"/>
  
  <!-- Timeline markers -->
  <circle cx="16" cy="56" r="2" fill="white"/>
  <circle cx="32" cy="56" r="2" fill="white"/>
  <circle cx="48" cy="56" r="2" fill="white"/>
  
  <!-- Response indicators -->
  <path d="M12 20L20 20" stroke="white" stroke-width="2" stroke-linecap="round"/>
  <path d="M44 20L52 20" stroke="white" stroke-width="2" stroke-linecap="round"/>
  <path d="M28 16L36 16" stroke="white" stroke-width="2" stroke-linecap="round"/>
  
  <!-- Alert circles -->
  <circle cx="16" cy="16" r="3" fill="#F59E0B" stroke="#D97706" stroke-width="1"/>
  <circle cx="48" cy="16" r="3" fill="#F59E0B" stroke="#D97706" stroke-width="1"/>
  <circle cx="32" cy="12" r="3" fill="#F59E0B" stroke="#D97706" stroke-width="1"/>
</svg> 