<svg width="64" height="64" viewBox="0 0 64 64" fill="none" xmlns="http://www.w3.org/2000/svg">
  <!-- Background gradient -->
  <defs>
    <linearGradient id="nodeGradient" x1="0%" y1="0%" x2="100%" y2="100%">
      <stop offset="0%" style="stop-color:#8B5CF6;stop-opacity:1" />
      <stop offset="100%" style="stop-color:#6D28D9;stop-opacity:1" />
    </linearGradient>
    <linearGradient id="connectionGradient" x1="0%" y1="0%" x2="100%" y2="100%">
      <stop offset="0%" style="stop-color:#10B981;stop-opacity:1" />
      <stop offset="100%" style="stop-color:#059669;stop-opacity:1" />
    </linearGradient>
  </defs>
  
  <!-- Network connections -->
  <path d="M20 20L44 20" stroke="url(#connectionGradient)" stroke-width="2" stroke-linecap="round"/>
  <path d="M20 20L32 44" stroke="url(#connectionGradient)" stroke-width="2" stroke-linecap="round"/>
  <path d="M44 20L32 44" stroke="url(#connectionGradient)" stroke-width="2" stroke-linecap="round"/>
  <path d="M20 20L44 44" stroke="url(#connectionGradient)" stroke-width="2" stroke-linecap="round"/>
  <path d="M44 20L20 44" stroke="url(#connectionGradient)" stroke-width="2" stroke-linecap="round"/>
  
  <!-- Network nodes -->
  <circle cx="20" cy="20" r="4" fill="url(#nodeGradient)" stroke="#6D28D9" stroke-width="2"/>
  <circle cx="44" cy="20" r="4" fill="url(#nodeGradient)" stroke="#6D28D9" stroke-width="2"/>
  <circle cx="32" cy="44" r="4" fill="url(#nodeGradient)" stroke="#6D28D9" stroke-width="2"/>
  <circle cx="20" cy="44" r="4" fill="url(#nodeGradient)" stroke="#6D28D9" stroke-width="2"/>
  <circle cx="44" cy="44" r="4" fill="url(#nodeGradient)" stroke="#6D28D9" stroke-width="2"/>
  
  <!-- Security shield overlay -->
  <path d="M32 12L44 16V24C44 32 38 40 32 44C26 40 20 32 20 24V16L32 12Z" fill="none" stroke="#EF4444" stroke-width="1" stroke-dasharray="2,2"/>
  
  <!-- Data flow indicators -->
  <circle cx="32" cy="32" r="2" fill="#F59E0B"/>
  <circle cx="28" cy="28" r="1" fill="#F59E0B"/>
  <circle cx="36" cy="36" r="1" fill="#F59E0B"/>
</svg> 