<svg width="64" height="64" viewBox="0 0 64 64" fill="none" xmlns="http://www.w3.org/2000/svg">
  <!-- Background gradient -->
  <defs>
    <linearGradient id="magnifierGradient" x1="0%" y1="0%" x2="100%" y2="100%">
      <stop offset="0%" style="stop-color:#3B82F6;stop-opacity:1" />
      <stop offset="100%" style="stop-color:#1E40AF;stop-opacity:1" />
    </linearGradient>
    <linearGradient id="chartGradient" x1="0%" y1="0%" x2="100%" y2="100%">
      <stop offset="0%" style="stop-color:#F59E0B;stop-opacity:1" />
      <stop offset="100%" style="stop-color:#D97706;stop-opacity:1" />
    </linearGradient>
  </defs>
  
  <!-- Magnifying glass -->
  <circle cx="28" cy="28" r="12" fill="none" stroke="url(#magnifierGradient)" stroke-width="3"/>
  <path d="M36 36L44 44" stroke="url(#magnifierGradient)" stroke-width="3" stroke-linecap="round"/>
  
  <!-- Security alert in magnifier -->
  <circle cx="28" cy="28" r="6" fill="#EF4444" stroke="#DC2626" stroke-width="1"/>
  <path d="M28 24L28 32M25 28L31 28" stroke="white" stroke-width="1.5" stroke-linecap="round"/>
  
  <!-- Data chart -->
  <rect x="12" y="40" width="40" height="16" rx="2" fill="url(#chartGradient)" stroke="#D97706" stroke-width="1"/>
  <rect x="14" y="42" width="36" height="12" rx="1" fill="#1F2937"/>
  
  <!-- Chart bars -->
  <rect x="16" y="50" width="4" height="2" fill="#10B981"/>
  <rect x="22" y="48" width="4" height="4" fill="#EF4444"/>
  <rect x="28" y="46" width="4" height="6" fill="#F59E0B"/>
  <rect x="34" y="44" width="4" height="8" fill="#3B82F6"/>
  <rect x="40" y="42" width="4" height="10" fill="#8B5CF6"/>
  
  <!-- Analysis indicators -->
  <circle cx="48" cy="16" r="2" fill="#10B981"/>
  <circle cx="52" cy="16" r="2" fill="#EF4444"/>
  <circle cx="56" cy="16" r="2" fill="#F59E0B"/>
</svg> 